# xmcd
# 
# Track frame offsets:
#     150
#     16278
#     35198
#     48403
# 
# Disc length: 812
# 
# Revision: 2
# Processed by: cddbd v1.5.2PL0 Copyright (c) Steve Scherf et al.
# Submitted via: fre:ac v1.0.31
# 
DISCID=2e032a04
DTITLE=Mandolin Orange - Sing And Play Traditionals (Bonus EP)
DYEAR=2019
DGENRE=Folk
TTITLE0=Little Margaret
TTITLE1=Silver Dagger
TTITLE2=Rolling Mills
TTITLE3=I Just Think I'll Go Away
EXTD=YEAR: 2019
EXTT0=
EXTT1=
EXTT2=
EXTT3=
PLAYORDER=
